G04 #@! TF.GenerationSoftware,KiCad,Pcbnew,(6.0.4-0)*
G04 #@! TF.CreationDate,2022-05-14T17:46:32+09:00*
G04 #@! TF.ProjectId,CC-dedoubler,43432d64-6564-46f7-9562-6c65722e6b69,rev?*
G04 #@! TF.SameCoordinates,Original*
G04 #@! TF.FileFunction,Copper,L2,Bot*
G04 #@! TF.FilePolarity,Positive*
%FSLAX46Y46*%
G04 Gerber Fmt 4.6, Leading zero omitted, Abs format (unit mm)*
G04 Created by KiCad (PCBNEW (6.0.4-0)) date 2022-05-14 17:46:32*
%MOMM*%
%LPD*%
G01*
G04 APERTURE LIST*
G04 #@! TA.AperFunction,ViaPad*
%ADD10C,0.500000*%
G04 #@! TD*
G04 #@! TA.AperFunction,Conductor*
%ADD11C,0.200000*%
G04 #@! TD*
G04 APERTURE END LIST*
D10*
X146151600Y-101473000D03*
X143840200Y-101828600D03*
X144646333Y-100380225D03*
X142789500Y-103174800D03*
X144602200Y-102565200D03*
X145694400Y-103570391D03*
X144754600Y-99161600D03*
X142240000Y-99441000D03*
X143642702Y-104851200D03*
X146801586Y-99132649D03*
X146812000Y-103301800D03*
D11*
X142240000Y-104165400D02*
X142240000Y-100863400D01*
X142240000Y-100863400D02*
X142240000Y-100558600D01*
X142265400Y-100863400D02*
X142240000Y-100863400D01*
X142570200Y-100558600D02*
X142265400Y-100863400D01*
X142240000Y-100558600D02*
X142240000Y-100050600D01*
X142240000Y-100050600D02*
X142240000Y-99441000D01*
X142570200Y-100558600D02*
X142240000Y-100228400D01*
X142240000Y-100228400D02*
X142240000Y-100050600D01*
X143840200Y-101828600D02*
X145796000Y-101828600D01*
X145796000Y-101828600D02*
X146151600Y-101473000D01*
X144646333Y-100380225D02*
X144511448Y-100380225D01*
X144511448Y-100380225D02*
X142789500Y-102102173D01*
X142789500Y-102102173D02*
X142789500Y-103174800D01*
X145694400Y-103570391D02*
X145607391Y-103570391D01*
X145607391Y-103570391D02*
X144602200Y-102565200D01*
X143642702Y-104851200D02*
X142925800Y-104851200D01*
X142570200Y-100558600D02*
X143992600Y-99136200D01*
X143992600Y-99136200D02*
X144729200Y-99136200D01*
X142240000Y-100558600D02*
X142570200Y-100558600D01*
X144729200Y-99136200D02*
X144754600Y-99161600D01*
X142925800Y-104851200D02*
X142240000Y-104165400D01*
X146812000Y-103301800D02*
X146812000Y-99143063D01*
X146812000Y-99143063D02*
X146801586Y-99132649D01*
M02*
