G04 #@! TF.GenerationSoftware,KiCad,Pcbnew,(6.0.4-0)*
G04 #@! TF.CreationDate,2022-05-14T17:46:32+09:00*
G04 #@! TF.ProjectId,CC-dedoubler,43432d64-6564-46f7-9562-6c65722e6b69,rev?*
G04 #@! TF.SameCoordinates,Original*
G04 #@! TF.FileFunction,Copper,L1,Top*
G04 #@! TF.FilePolarity,Positive*
%FSLAX46Y46*%
G04 Gerber Fmt 4.6, Leading zero omitted, Abs format (unit mm)*
G04 Created by KiCad (PCBNEW (6.0.4-0)) date 2022-05-14 17:46:32*
%MOMM*%
%LPD*%
G01*
G04 APERTURE LIST*
G04 #@! TA.AperFunction,SMDPad,CuDef*
%ADD10R,0.354800X0.845299*%
G04 #@! TD*
G04 #@! TA.AperFunction,SMDPad,CuDef*
%ADD11R,1.500000X1.000000*%
G04 #@! TD*
G04 #@! TA.AperFunction,SMDPad,CuDef*
%ADD12R,1.000000X1.500000*%
G04 #@! TD*
G04 #@! TA.AperFunction,SMDPad,CuDef*
%ADD13R,0.304800X0.845299*%
G04 #@! TD*
G04 #@! TA.AperFunction,ViaPad*
%ADD14C,0.500000*%
G04 #@! TD*
G04 #@! TA.AperFunction,Conductor*
%ADD15C,0.200000*%
G04 #@! TD*
G04 APERTURE END LIST*
D10*
X146801599Y-102574349D03*
X146151600Y-102574349D03*
X145501601Y-102574349D03*
X145501601Y-104842051D03*
X146151600Y-104842051D03*
X146801599Y-104842051D03*
D11*
X142443200Y-104954800D03*
X142417800Y-103174800D03*
D12*
X142240000Y-99441000D03*
D13*
X146801586Y-99132649D03*
X146151600Y-99132649D03*
X145501614Y-99132649D03*
X145501601Y-101374951D03*
X146801599Y-101374951D03*
D11*
X142417800Y-101473000D03*
D12*
X143738600Y-99441000D03*
D14*
X146151600Y-101473000D03*
X143840200Y-101828600D03*
X144646333Y-100380225D03*
X142789500Y-103174800D03*
X144602200Y-102565200D03*
X145694400Y-103570391D03*
X144754600Y-99161600D03*
X142240000Y-99441000D03*
X143642702Y-104851200D03*
X146801586Y-99132649D03*
X146812000Y-103301800D03*
D15*
X145501601Y-101374951D02*
X144827249Y-101374951D01*
X144827249Y-101374951D02*
X144427951Y-101374951D01*
X144602200Y-101549200D02*
X144653000Y-101549200D01*
X144653000Y-101549200D02*
X144827249Y-101374951D01*
X142417800Y-101473000D02*
X143484600Y-101473000D01*
X143484600Y-101473000D02*
X143840200Y-101828600D01*
X146703550Y-101473000D02*
X146801599Y-101374951D01*
X146151600Y-101473000D02*
X146703550Y-101473000D01*
X146151600Y-101473000D02*
X146151600Y-102574349D01*
X145034000Y-103174800D02*
X145501601Y-102707199D01*
X145526673Y-100380225D02*
X144646333Y-100380225D01*
X146151600Y-99755298D02*
X145526673Y-100380225D01*
X142417800Y-103174800D02*
X145034000Y-103174800D01*
X146151600Y-99132649D02*
X146151600Y-99755298D01*
X145501601Y-102707199D02*
X145501601Y-102574349D01*
X144602200Y-101549200D02*
X144427951Y-101374951D01*
X146152588Y-103570391D02*
X146801599Y-104219402D01*
X144602200Y-102565200D02*
X144602200Y-101549200D01*
X143738600Y-100685600D02*
X143738600Y-99441000D01*
X146801599Y-104842051D02*
X146801599Y-104219402D01*
X144427951Y-101374951D02*
X143738600Y-100685600D01*
X146152588Y-103570391D02*
X145694400Y-103570391D01*
X143651851Y-104842051D02*
X143642702Y-104851200D01*
X145472663Y-99161600D02*
X145501614Y-99132649D01*
X145501601Y-104842051D02*
X143651851Y-104842051D01*
X144754600Y-99161600D02*
X145472663Y-99161600D01*
X142443200Y-104954800D02*
X142761975Y-104954800D01*
X146151600Y-104292979D02*
X146151600Y-104842051D01*
X143596884Y-104119891D02*
X145978512Y-104119891D01*
X142761975Y-104954800D02*
X143596884Y-104119891D01*
X145978512Y-104119891D02*
X146151600Y-104292979D01*
X146801599Y-102574349D02*
X146801599Y-103291399D01*
X146801599Y-103291399D02*
X146812000Y-103301800D01*
M02*
